# xmcd CD database file
#
# Track frame offsets:
#	150
#	18225
#	39400
#	54600
#	72325
#	88850
#	100650
#	115975
#	131400
#	146800
#
# Disc length: 2150 seconds
#
# Revision: 1
# Processed by: cddbd v1.4PL0 Copyright (c) Steve Scherf et al.
# Submitted via: CDex 1.40Release
#
DISCID=8808640a
DTITLE=Billy Hoffman - All I Wanted Was You
DYEAR=2000
DGENRE=Country
TTITLE0=All I Wanted Was You
TTITLE1=I Go Crazy
TTITLE2=Destination Unknown
TTITLE3=Crossing Fences
TTITLE4=It Just Hurts A Little
TTITLE5=You're The Ticket
TTITLE6=One Bad Habit
TTITLE7=Perfect Night
TTITLE8=You Call That A Mountain
TTITLE9=Saved By A Southern Belle
EXTD=YEAR: 2000 ID3G: 2
EXTT0=
EXTT1=
EXTT2=
EXTT3=
EXTT4=
EXTT5=
EXTT6=
EXTT7=
EXTT8=
EXTT9=
PLAYORDER=
